<?xml version="1.0" encoding="utf-8"?>
<!-- Svg Vector Icons : http://www.onlinewebfonts.com/icon -->
<!DOCTYPE svg PUBLIC "-//W3C//DTD SVG 1.1//EN" "http://www.w3.org/Graphics/SVG/1.1/DTD/svg11.dtd">
<svg version="1.1" xmlns="http://www.w3.org/2000/svg" xmlns:xlink="http://www.w3.org/1999/xlink" x="0px" y="0px" viewBox="0 0 1000 1000" enable-background="new 0 0 1000 1000" xml:space="preserve">
<metadata> Svg Vector Icons : http://www.onlinewebfonts.com/icon </metadata>
<g><path d="M500,10C229.3,10,10,229.3,10,500c0,270.7,219.3,490,490,490c270.7,0,490-219.3,490-490C990,229.3,770.7,10,500,10z M500,943.3C255,943.3,56.7,745,56.7,500S255,56.7,500,56.7C742.7,56.7,943.3,255,943.3,500S745,943.3,500,943.3z"/><path d="M710,332c-9.3,0-18.7,4.7-25.7,9.3l-242.7,245l-126-126c-7-7-14-9.3-25.7-9.3c-18.7,0-35,16.3-35,35c0,9.3,4.7,18.7,9.3,25.7L416,663.3c7,7,14,9.3,25.7,9.3c9.3,0,18.7-4.7,25.7-9.3L735.7,395c7-7,9.3-14,9.3-25.7C745,346,728.7,332,710,332z"/></g>
</svg>